<svg width="742" height="797" viewBox="0 0 742 797" fill="none" xmlns="http://www.w3.org/2000/svg">
<g id="undraw_attached_file_n4wm 1">
<g id="Group 1">
<path id="Vector" d="M552.311 0H162.689C159.06 0.00578321 155.58 2.08293 153.014 5.77572C150.448 9.4685 149.004 14.4753 149 19.6977V777.302C149.004 782.525 150.448 787.531 153.014 791.224C155.58 794.917 159.06 796.994 162.689 797H552.311C555.94 796.994 559.419 794.917 561.986 791.224C564.552 787.531 565.996 782.525 566 777.302V19.6977C565.996 14.4754 564.552 9.46861 561.986 5.77586C559.42 2.0831 555.94 0.00591129 552.311 0Z" fill="#3F3D56"/>
<path id="Vector_2" d="M174.435 15C171.895 15.0592 169.475 16.4993 167.706 19.0047C165.938 21.5101 164.965 24.8763 165.001 28.3652V718.345C164.965 721.833 165.938 725.2 167.706 727.705C169.475 730.21 171.895 731.651 174.435 731.71H541.194C543.735 731.651 546.155 730.21 547.923 727.705C549.692 725.2 550.665 721.833 550.629 718.345V28.3652C550.665 24.8763 549.692 21.5101 547.923 19.0047C546.155 16.4993 543.735 15.0592 541.194 15H174.435Z" fill="white"/>
<path id="Vector_3" d="M193.975 40.9763C190.489 40.9763 187.653 44.5627 187.653 48.9716V126.26C187.653 130.668 190.489 134.255 193.975 134.255H521.655C525.141 134.255 527.977 130.668 527.977 126.26V48.9716C527.977 44.5627 525.141 40.9763 521.655 40.9763H193.975Z" fill="#E6E6E6"/>
<path id="Vector_4" d="M193.975 171.743C192.275 171.773 190.655 172.557 189.47 173.923C188.284 175.289 187.631 177.126 187.653 179.031V344.223C187.631 346.128 188.284 347.966 189.47 349.332C190.655 350.698 192.275 351.482 193.975 351.511H521.655C523.355 351.482 524.975 350.698 526.16 349.332C527.345 347.966 527.999 346.128 527.977 344.223V179.031C527.999 177.126 527.345 175.289 526.16 173.923C524.975 172.557 523.355 171.773 521.655 171.743H193.975Z" fill="#E6E6E6"/>
<path id="Vector_5" d="M487.412 51.8982H228.218V68.4285H487.412V51.8982Z" fill="white"/>
<path id="Vector_6" d="M487.939 86.73H228.745V94.4048H487.939V86.73Z" fill="white"/>
<path id="Vector_7" d="M487.939 100.309H228.745V107.983H487.939V100.309Z" fill="white"/>
<path id="Vector_8" d="M487.939 113.887H228.745V121.562H487.939V113.887Z" fill="white"/>
<path id="Vector_9" d="M382.22 351.806H501.503C502.262 351.806 503.004 351.554 503.636 351.081C504.267 350.608 504.759 349.936 505.05 349.15C505.341 348.364 505.417 347.499 505.269 346.664C505.12 345.829 504.755 345.063 504.218 344.461L427.875 258.908C427.155 258.103 426.178 257.65 425.16 257.65C424.142 257.65 423.166 258.103 422.445 258.908L403.461 280.183C402.713 281.021 401.825 281.686 400.848 282.14C399.871 282.593 398.823 282.827 397.766 282.827C396.708 282.827 395.661 282.593 394.684 282.14C393.706 281.686 392.819 281.021 392.071 280.183L332.609 213.548C331.888 212.742 330.912 212.29 329.894 212.29C328.875 212.29 327.899 212.742 327.178 213.548L210.885 343.87C210.348 344.472 209.982 345.239 209.834 346.074C209.686 346.908 209.762 347.773 210.053 348.56C210.344 349.346 210.836 350.018 211.467 350.491C212.099 350.964 212.841 351.216 213.6 351.216H382.373L382.22 351.806Z" fill="white"/>
<path id="Vector_10" d="M240.335 227.238C248.481 227.238 255.086 219.837 255.086 210.708C255.086 201.578 248.481 194.177 240.335 194.177C232.188 194.177 225.584 201.578 225.584 210.708C225.584 219.837 232.188 227.238 240.335 227.238Z" fill="white"/>
<path id="Vector_11" d="M193.975 390.18C192.275 390.21 190.655 390.994 189.47 392.36C188.284 393.726 187.631 395.563 187.653 397.468V562.66C187.631 564.565 188.284 566.403 189.47 567.769C190.655 569.135 192.275 569.919 193.975 569.948H521.655C523.355 569.919 524.975 569.135 526.16 567.769C527.345 566.403 527.999 564.565 527.977 562.66V397.468C527.999 395.563 527.345 393.726 526.16 392.36C524.975 390.994 523.355 390.21 521.655 390.18H193.975Z" fill="#E6E6E6"/>
<path id="Vector_12" d="M382.22 570.243H501.503C502.262 570.243 503.004 569.991 503.636 569.518C504.267 569.045 504.759 568.373 505.05 567.587C505.34 566.8 505.417 565.935 505.269 565.101C505.12 564.266 504.755 563.499 504.218 562.897L427.875 477.345C427.154 476.54 426.178 476.088 425.16 476.088C424.142 476.088 423.166 476.54 422.445 477.345L403.461 498.62C402.713 499.458 401.825 500.123 400.848 500.577C399.871 501.031 398.823 501.265 397.766 501.265C396.708 501.265 395.66 501.031 394.683 500.577C393.706 500.123 392.818 499.458 392.07 498.62L332.609 431.985C331.888 431.18 330.912 430.727 329.894 430.727C328.876 430.727 327.899 431.18 327.178 431.985L210.885 562.307C210.348 562.909 209.983 563.675 209.834 564.51C209.686 565.345 209.762 566.21 210.053 566.996C210.344 567.783 210.836 568.455 211.467 568.928C212.099 569.4 212.841 569.653 213.6 569.653H382.373L382.22 570.243Z" fill="white"/>
<path id="Vector_13" d="M240.335 445.675C248.481 445.675 255.086 438.274 255.086 429.145C255.086 420.015 248.481 412.614 240.335 412.614C232.188 412.614 225.584 420.015 225.584 429.145C225.584 438.274 232.188 445.675 240.335 445.675Z" fill="white"/>
<path id="Vector_14" d="M367.395 161.581C364.866 161.633 362.456 162.91 360.695 165.131C358.934 167.353 357.965 170.337 358.001 173.43V785.151C357.965 788.244 358.934 791.228 360.695 793.449C362.456 795.671 364.866 796.948 367.395 797H732.605C735.134 796.948 737.544 795.671 739.305 793.449C741.066 791.228 742.035 788.244 741.999 785.151V173.43C742.035 170.337 741.066 167.353 739.305 165.131C737.544 162.91 735.134 161.633 732.605 161.581H367.395Z" fill="#3F3D56"/>
<path id="Vector_15" d="M423.998 249.136C422.881 249.138 421.81 249.667 421.02 250.607C420.229 251.548 419.785 252.823 419.784 254.153V277.18C419.785 278.51 420.229 279.785 421.02 280.726C421.81 281.666 422.881 282.196 423.998 282.197H672.656C673.773 282.196 674.844 281.667 675.634 280.726C676.425 279.785 676.869 278.51 676.87 277.18V254.153C676.869 252.823 676.425 251.548 675.634 250.607C674.844 249.667 673.773 249.138 672.656 249.136H423.998Z" fill="#FFAE10"/>
<path id="Vector_16" d="M422.945 325.884C422.665 325.885 422.398 326.007 422.2 326.224C422.002 326.442 421.891 326.736 421.891 327.044V335.352C421.891 335.659 422.002 335.954 422.2 336.171C422.398 336.388 422.665 336.511 422.945 336.511H675.817C676.096 336.511 676.364 336.389 676.561 336.171C676.759 335.954 676.87 335.659 676.87 335.352V327.044C676.87 326.736 676.759 326.442 676.561 326.224C676.364 326.007 676.096 325.885 675.817 325.884H422.945Z" fill="#CCCCCC"/>
<path id="Vector_17" d="M422.945 355.403C422.665 355.403 422.398 355.526 422.2 355.743C422.002 355.96 421.891 356.255 421.891 356.562V364.87C421.891 365.178 422.002 365.472 422.2 365.69C422.398 365.907 422.665 366.029 422.945 366.03H675.817C676.096 366.029 676.364 365.907 676.561 365.69C676.759 365.472 676.87 365.178 676.87 364.87V356.562C676.87 356.255 676.759 355.96 676.561 355.743C676.364 355.525 676.096 355.403 675.817 355.403H422.945Z" fill="#CCCCCC"/>
<path id="Vector_18" d="M422.945 383.741C422.665 383.741 422.398 383.877 422.2 384.119C422.002 384.36 421.891 384.687 421.891 385.029V394.26C421.891 394.602 422.002 394.929 422.2 395.17C422.398 395.412 422.665 395.548 422.945 395.548H675.817C676.096 395.548 676.364 395.412 676.561 395.17C676.759 394.929 676.87 394.602 676.87 394.26V385.029C676.87 384.687 676.759 384.36 676.561 384.118C676.364 383.877 676.096 383.741 675.817 383.741H422.945Z" fill="#CCCCCC"/>
<path id="Vector_19" d="M421.891 442.778C421.612 442.778 421.344 442.914 421.146 443.156C420.949 443.397 420.838 443.724 420.837 444.066V453.297C420.838 453.639 420.949 453.966 421.146 454.207C421.344 454.449 421.612 454.585 421.891 454.585H674.763C675.042 454.585 675.31 454.449 675.508 454.208C675.705 453.966 675.816 453.639 675.817 453.297V444.066C675.816 443.724 675.705 443.397 675.508 443.155C675.31 442.914 675.042 442.778 674.763 442.778H421.891Z" fill="#CCCCCC"/>
<path id="Vector_20" d="M421.891 472.296C421.612 472.297 421.344 472.433 421.146 472.674C420.949 472.916 420.838 473.243 420.837 473.584V482.816C420.838 483.157 420.949 483.484 421.146 483.726C421.344 483.967 421.612 484.103 421.891 484.104H674.763C675.042 484.103 675.31 483.968 675.508 483.726C675.705 483.485 675.816 483.157 675.817 482.816V473.584C675.816 473.243 675.705 472.915 675.508 472.674C675.31 472.432 675.042 472.297 674.763 472.296H421.891Z" fill="#CCCCCC"/>
<path id="Vector_21" d="M421.891 501.815C421.612 501.815 421.344 501.951 421.146 502.192C420.949 502.434 420.838 502.761 420.837 503.103V512.334C420.838 512.676 420.949 513.003 421.146 513.245C421.344 513.486 421.612 513.622 421.891 513.622H674.763C675.042 513.622 675.31 513.486 675.508 513.245C675.705 513.003 675.816 512.676 675.817 512.334V503.103C675.816 502.761 675.705 502.434 675.508 502.192C675.31 501.951 675.042 501.815 674.763 501.815H421.891Z" fill="#CCCCCC"/>
<path id="Vector_22" d="M421.891 531.333C421.612 531.334 421.344 531.47 421.146 531.711C420.949 531.953 420.838 532.28 420.837 532.621V541.853C420.838 542.194 420.949 542.522 421.146 542.763C421.344 543.005 421.612 543.14 421.891 543.141H674.763C675.042 543.141 675.31 543.005 675.508 542.763C675.705 542.522 675.816 542.194 675.817 541.853V532.621C675.816 532.28 675.705 531.952 675.508 531.711C675.31 531.469 675.042 531.334 674.763 531.333H421.891Z" fill="#CCCCCC"/>
<path id="Vector_23" d="M421.891 560.852C421.612 560.852 421.344 560.974 421.146 561.192C420.949 561.409 420.838 561.704 420.837 562.011V570.319C420.838 570.627 420.949 570.921 421.146 571.139C421.344 571.356 421.612 571.478 421.891 571.479H674.763C675.042 571.478 675.31 571.356 675.508 571.139C675.705 570.921 675.816 570.627 675.817 570.319V562.011C675.816 561.704 675.705 561.409 675.508 561.192C675.31 560.974 675.042 560.852 674.763 560.852H421.891Z" fill="#CCCCCC"/>
<path id="Vector_24" d="M421.891 590.37C421.612 590.371 421.344 590.493 421.146 590.71C420.949 590.928 420.838 591.222 420.837 591.53V599.838C420.838 600.145 420.949 600.44 421.146 600.657C421.344 600.875 421.612 600.997 421.891 600.997H674.763C675.042 600.997 675.31 600.875 675.508 600.657C675.705 600.44 675.816 600.145 675.817 599.838V591.53C675.816 591.222 675.705 590.928 675.508 590.71C675.31 590.493 675.042 590.371 674.763 590.37H421.891Z" fill="#CCCCCC"/>
<path id="Vector_25" d="M421.891 619.889C421.612 619.889 421.344 620.012 421.146 620.229C420.949 620.446 420.838 620.741 420.837 621.048V629.356C420.838 629.664 420.949 629.958 421.146 630.176C421.344 630.393 421.612 630.515 421.891 630.516H674.763C675.042 630.515 675.31 630.393 675.508 630.176C675.705 629.958 675.816 629.664 675.817 629.356V621.048C675.816 620.741 675.705 620.446 675.508 620.229C675.31 620.011 675.042 619.889 674.763 619.889H421.891Z" fill="#CCCCCC"/>
<path id="Vector_26" d="M421.891 648.227C421.612 648.227 421.344 648.363 421.146 648.604C420.949 648.846 420.838 649.173 420.837 649.515V658.746C420.838 659.088 420.949 659.415 421.146 659.656C421.344 659.898 421.612 660.034 421.891 660.034H674.763C675.042 660.034 675.31 659.898 675.508 659.657C675.705 659.415 675.816 659.088 675.817 658.746V649.515C675.816 649.173 675.705 648.846 675.508 648.604C675.31 648.363 675.042 648.227 674.763 648.227H421.891Z" fill="#CCCCCC"/>
<path id="Vector_27" d="M421.891 677.745C421.612 677.746 421.344 677.881 421.146 678.123C420.949 678.364 420.838 678.692 420.837 679.033V688.265C420.838 688.606 420.949 688.934 421.146 689.175C421.344 689.417 421.612 689.552 421.891 689.553H674.763C675.042 689.552 675.31 689.417 675.508 689.175C675.705 688.934 675.816 688.606 675.817 688.265V679.033C675.816 678.692 675.705 678.364 675.508 678.123C675.31 677.881 675.042 677.745 674.763 677.745H421.891Z" fill="#CCCCCC"/>
<path id="Star 1" d="M441.5 187.354L445.878 200.711H460.046L448.584 208.966L452.962 222.323L441.5 214.068L430.038 222.323L434.416 208.966L422.954 200.711H437.122L441.5 187.354Z" fill="#FFAE10"/>
<path id="Star 3" d="M481 187.354L485.49 200.711H500.021L488.265 208.966L492.756 222.323L481 214.068L469.244 222.323L473.735 208.966L461.979 200.711H476.51L481 187.354Z" fill="#FFAE10"/>
<path id="Star 2" d="M520.5 187.354L524.878 200.711H539.046L527.584 208.966L531.962 222.323L520.5 214.068L509.038 222.323L513.416 208.966L501.954 200.711H516.122L520.5 187.354Z" fill="#FFAE10"/>
</g>
<g id="Group 2">
<path id="Vector_28" d="M5.97092 275.827C4.70617 275.825 3.4925 276.325 2.59613 277.218C1.69976 278.11 1.19388 279.321 1.18949 280.586L0.0148956 791.025C0.0134712 792.289 0.513755 793.503 1.40601 794.399C2.29826 795.296 3.50961 795.802 4.77436 795.806L415.987 796.752C417.252 796.754 418.465 796.254 419.362 795.361C420.258 794.469 420.764 793.258 420.768 791.993L421.943 281.554C421.944 280.29 421.444 279.076 420.552 278.18C419.66 277.283 418.448 276.777 417.184 276.773L5.97092 275.827Z" fill="#3F3D56"/>
<path id="Vector_29" d="M21.2011 291.127C19.9363 291.126 18.7227 291.626 17.8263 292.518C16.9299 293.411 16.424 294.622 16.4197 295.887L15.3153 775.794C15.3139 777.059 15.8142 778.273 16.7064 779.169C17.5987 780.065 18.81 780.571 20.0748 780.576L400.757 781.452C402.022 781.453 403.235 780.953 404.132 780.061C405.028 779.168 405.534 777.957 405.538 776.692L406.643 296.785C406.644 295.52 406.144 294.306 405.252 293.41C404.359 292.513 403.148 292.008 401.883 292.003L21.2011 291.127Z" fill="white"/>
<path id="Vector_30" d="M351.316 499.522L70.813 498.876C69.873 498.875 68.9425 498.688 68.0748 498.327C67.207 497.965 66.4189 497.436 65.7555 496.77C65.0922 496.104 64.5665 495.314 64.2087 494.445C63.8508 493.576 63.6678 492.644 63.6699 491.704C63.6721 490.764 63.8595 489.834 64.2213 488.966C64.5832 488.099 65.1124 487.311 65.7788 486.648C66.4452 485.985 67.2357 485.46 68.1052 485.102C68.9746 484.745 69.9059 484.562 70.846 484.565L351.349 485.211C353.246 485.216 355.063 485.975 356.401 487.319C357.739 488.664 358.488 490.486 358.484 492.383C358.48 494.28 357.722 496.098 356.378 497.436C355.034 498.775 353.213 499.525 351.316 499.522Z" fill="#E6E6E6"/>
<path id="Vector_31" d="M354.031 366.193L167.937 365.765C165.315 365.759 163.197 362.55 163.206 358.598C163.215 354.647 165.348 351.448 167.97 351.454L354.064 351.882C356.686 351.888 358.804 355.097 358.795 359.049C358.786 363 356.653 366.199 354.031 366.193Z" fill="#E6E6E6"/>
<path id="Vector_32" d="M353.936 407.219L167.842 406.791C165.221 406.785 163.103 403.576 163.112 399.624C163.121 395.672 165.254 392.474 167.875 392.48L353.969 392.908C356.592 392.914 358.709 396.123 358.7 400.074C358.691 404.026 356.559 407.225 353.936 407.219Z" fill="#E6E6E6"/>
<path id="Vector_33" d="M351.209 545.795L70.7065 545.15C68.8094 545.144 66.9921 544.386 65.654 543.041C64.316 541.696 63.5668 539.875 63.5712 537.978C63.5756 536.081 64.3331 534.263 65.6773 532.924C67.0215 531.585 68.8423 530.835 70.7395 530.839L351.242 531.484C353.139 531.489 354.957 532.248 356.295 533.593C357.633 534.938 358.382 536.759 358.378 538.656C358.373 540.553 357.616 542.371 356.271 543.71C354.927 545.049 353.106 545.799 351.209 545.795Z" fill="#E6E6E6"/>
<path id="Vector_34" d="M351.103 592.069L70.6001 591.423C69.66 591.422 68.7295 591.235 67.8617 590.873C66.994 590.512 66.2059 589.983 65.5425 589.317C64.8792 588.651 64.3536 587.861 63.9957 586.992C63.6379 586.122 63.4548 585.191 63.4569 584.251C63.4591 583.311 63.6465 582.381 64.0083 581.513C64.3702 580.646 64.8994 579.858 65.5658 579.195C66.2322 578.532 67.0227 578.007 67.8922 577.649C68.7616 577.292 69.693 577.109 70.633 577.112L351.136 577.757C352.076 577.759 353.006 577.946 353.874 578.307C354.742 578.669 355.53 579.198 356.193 579.864C356.857 580.53 357.382 581.32 357.74 582.189C358.098 583.058 358.281 583.99 358.279 584.93C358.277 585.87 358.089 586.8 357.727 587.668C357.366 588.535 356.836 589.323 356.17 589.986C355.504 590.649 354.713 591.174 353.844 591.532C352.974 591.889 352.043 592.071 351.103 592.069Z" fill="#E6E6E6"/>
<path id="Vector_35" d="M350.996 638.342L70.4936 637.697C69.5539 637.695 68.6238 637.507 67.7565 637.146C66.8891 636.784 66.1015 636.255 65.4386 635.589C64.7756 634.923 64.2504 634.133 63.8928 633.264C63.5352 632.395 63.3522 631.464 63.3544 630.524C63.3566 629.585 63.5438 628.655 63.9054 627.787C64.267 626.92 64.7959 626.132 65.4619 625.47C66.1279 624.807 66.9179 624.281 67.7869 623.924C68.6559 623.566 69.5868 623.383 70.5265 623.385L351.029 624.031C352.926 624.036 354.744 624.795 356.082 626.14C357.42 627.485 358.169 629.306 358.165 631.203C358.16 633.1 357.403 634.918 356.058 636.257C354.714 637.595 352.893 638.345 350.996 638.342Z" fill="#E6E6E6"/>
<path id="Vector_36" d="M350.89 684.616L70.3871 683.97C68.4899 683.965 66.6726 683.206 65.3346 681.861C63.9966 680.516 63.2474 678.695 63.2517 676.798C63.2561 674.901 64.0137 673.083 65.3579 671.744C66.7021 670.406 68.5229 669.655 70.42 669.659L350.923 670.304C352.82 670.31 354.637 671.068 355.975 672.413C357.313 673.758 358.062 675.579 358.058 677.476C358.054 679.373 357.296 681.191 355.952 682.53C354.608 683.869 352.787 684.619 350.89 684.616Z" fill="#E6E6E6"/>
<path id="Vector_37" d="M350.783 730.889L70.2806 730.244C69.3409 730.241 68.4108 730.054 67.5435 729.693C66.6761 729.331 65.8885 728.802 65.2256 728.136C63.8867 726.791 63.137 724.969 63.1414 723.071C63.1457 721.174 63.9038 719.355 65.2489 718.016C66.5939 716.678 68.4157 715.928 70.3135 715.932L350.816 716.578C351.756 716.579 352.687 716.766 353.555 717.128C354.422 717.489 355.21 718.018 355.874 718.684C356.537 719.35 357.063 720.14 357.421 721.009C357.778 721.879 357.962 722.81 357.959 723.75C357.957 724.69 357.77 725.62 357.408 726.488C357.046 727.355 356.517 728.143 355.85 728.806C355.184 729.469 354.394 729.994 353.524 730.352C352.655 730.709 351.723 730.892 350.783 730.889Z" fill="#E6E6E6"/>
<path id="Vector_38" d="M101.619 417.134C122.433 417.134 139.306 400.261 139.306 379.447C139.306 358.633 122.433 341.76 101.619 341.76C80.8052 341.76 63.9323 358.633 63.9323 379.447C63.9323 400.261 80.8052 417.134 101.619 417.134Z" fill="#3F3D56"/>
<path id="Vector_39" d="M317.685 368.353L317.683 279.186C317.878 265.872 312.801 253.022 303.56 243.436C294.318 233.85 281.662 228.307 268.35 228.014C255.039 227.721 242.151 232.703 232.497 241.873C222.843 251.043 217.206 263.658 216.815 276.968H227.918C228.312 266.801 232.624 257.182 239.951 250.123C247.278 243.064 257.052 239.114 267.226 239.099C267.417 239.099 267.612 239.101 267.804 239.104C278.249 239.271 288.201 243.578 295.473 251.079C302.745 258.579 306.743 268.66 306.587 279.106V368.399C306.589 368.627 306.589 368.854 306.587 369.06C306.495 376.001 303.675 382.627 298.737 387.506C293.8 392.385 287.141 395.125 280.199 395.135C280.091 395.135 279.982 395.134 279.874 395.133C272.867 395.036 266.185 392.162 261.296 387.141C256.408 382.12 253.712 375.364 253.802 368.357L253.863 279.79C253.918 276.309 255.337 272.987 257.815 270.541C260.293 268.094 263.631 266.717 267.114 266.706C270.596 266.694 273.943 268.049 276.437 270.48C278.931 272.91 280.371 276.222 280.45 279.703V347.336C280.45 348.808 281.034 350.219 282.075 351.26C283.115 352.301 284.527 352.885 285.998 352.885C287.47 352.885 288.882 352.301 289.922 351.26C290.963 350.219 291.547 348.808 291.547 347.336L291.546 279.615C291.445 273.206 288.825 267.094 284.253 262.601C279.681 258.109 273.525 255.596 267.115 255.607C260.705 255.618 254.557 258.152 250 262.66C245.444 267.169 242.845 273.29 242.766 279.699L242.705 368.286C242.596 378.225 246.434 387.802 253.377 394.915C260.32 402.029 269.801 406.098 279.74 406.23C279.895 406.232 280.046 406.232 280.201 406.232C290.065 406.217 299.525 402.321 306.539 395.387C313.553 388.453 317.557 379.037 317.685 369.175C317.687 368.885 317.687 368.595 317.685 368.353Z" fill="#FFAE10"/>
</g>
</g>
</svg>
